<svg xmlns="http://www.w3.org/2000/svg" width="151.7" height="32.967" viewBox="0 0 151.7 32.967">
  <g id="homelogo" transform="translate(0.008 0.01)">
    <g id="Group_17265" data-name="Group 17265" transform="translate(-0.008 -0.009)">
      <g id="Group_17264" data-name="Group 17264" transform="translate(40.02 10.014)">
        <path id="Path_17855" data-name="Path 17855" d="M310.533,88.411c-.454,0-.844.009-1.235,0s-.468-.1-.474-.468q-.018-1.184,0-2.369c.005-.373.1-.464.475-.467q2.108-.012,4.217,0c.34,0,.421.1.449.429.008.087,0,.176,0,.263,0,2.259.011,4.518-.007,6.777a4.2,4.2,0,0,1-.482,1.944,2.94,2.94,0,0,1-2.293,1.529,26.96,26.96,0,0,1-4.329.106,4.914,4.914,0,0,1-1.342-.226,2.9,2.9,0,0,1-2.077-2.154,3.909,3.909,0,0,1-.158-1.094q.018-6.613.007-13.226A3.808,3.808,0,0,1,304,77.19a2.94,2.94,0,0,1,2.032-1.166,22.753,22.753,0,0,1,4-.117,5.364,5.364,0,0,1,1.859.286,3.045,3.045,0,0,1,1.953,2.354,7.93,7.93,0,0,1,.123,1.692c0,.614.008,1.228,0,1.842-.007.433-.084.527-.479.532q-1.251.018-2.5,0c-.338-.005-.429-.1-.442-.433-.016-.372,0-.746,0-1.119,0-.307.015-.615-.005-.921a.771.771,0,0,0-.779-.808c-.7-.028-1.407-.029-2.109,0-.544.022-.794.329-.8.905-.005,1.886,0,3.773,0,5.658q0,2.927,0,5.856c0,.718.259.975.986.986.592.008,1.188-.017,1.779.007a.885.885,0,0,0,.932-.943c-.025-1.1-.007-2.192-.007-3.393Z" transform="translate(-303.28 -75.877)" fill="#348080"/>
        <path id="Path_17856" data-name="Path 17856" d="M755.456,84.37h3.1a9.892,9.892,0,0,0,.047-1.618c.012-.548,0-1.1,0-1.645V76.22a.9.9,0,0,1,.706-.261c.681.008,1.362,0,2.043.005.54.007.691.161.693.714.005,1.733,0,3.465,0,5.2q0,6.712,0,13.422a2.275,2.275,0,0,1-.059.785,8.358,8.358,0,0,1-2.487.146.961.961,0,0,1-.905-.277v-8.11h-3.063c-.152.194-.079.422-.081.631q-.008,3.389,0,6.777c0,.153.011.309,0,.461a.508.508,0,0,1-.492.515q-1.285.024-2.569,0a.508.508,0,0,1-.492-.515,3.936,3.936,0,0,1,0-.395V76.893c0-.132-.009-.264,0-.395a.515.515,0,0,1,.542-.532c.79-.015,1.582-.024,2.373,0,.476.016.641.224.641.717q.006,3.454,0,6.909v.773Z" transform="translate(-692.694 -75.943)" fill="#348080"/>
        <path id="Path_17857" data-name="Path 17857" d="M658.643,104.588V95.779c0-.669.137-.817.794-.831.571-.013,1.143.018,1.713-.009a.719.719,0,0,1,.8.808c-.03.48-.007.965-.007,1.448q0,7.236,0,14.473a1.521,1.521,0,0,1-.082.709.5.5,0,0,1-.5.342c-.592-.009-1.186,0-1.779-.005a.657.657,0,0,1-.618-.405c-.835-1.684-1.719-3.346-2.506-5.053-.657-1.428-1.409-2.805-2.146-4.215v9.4a.853.853,0,0,1-.7.277c-.637-.008-1.273,0-1.911,0-.463-.005-.635-.153-.694-.6a3.569,3.569,0,0,1-.007-.461V95.994c0-.11-.005-.219,0-.329.032-.505.222-.7.738-.718.483-.016.967.018,1.449-.011a.823.823,0,0,1,.771.405,3.361,3.361,0,0,1,.239.466l4.179,8.464c.057.116.119.23.177.344l.084-.025Z" transform="translate(-605.114 -92.42)" fill="#348080"/>
        <path id="Path_17858" data-name="Path 17858" d="M448.12,95.16a.889.889,0,0,1,.7-.248c1.822,0,3.646-.042,5.466.025a5.1,5.1,0,0,1,2.156.426,2.971,2.971,0,0,1,1.692,2.61c.286,3.563.082,7.132.112,10.7a5.554,5.554,0,0,1-.253,1.8,2.934,2.934,0,0,1-2.132,2.023,5.3,5.3,0,0,1-1.285.185c-1.932.02-3.864.009-5.8.009-.11,0-.22,0-.329-.005a.343.343,0,0,1-.339-.335c-.011-.108-.007-.219-.007-.329V95.444c0-.087.008-.174.013-.282Zm3.455,14.1c.808,0,1.552.007,2.295,0a.866.866,0,0,0,.958-.859,3.327,3.327,0,0,0,.007-.459V99.784a2.918,2.918,0,0,0-.091-.772.792.792,0,0,0-.732-.648,17.248,17.248,0,0,0-2.435.012v10.88Z" transform="translate(-428.994 -92.39)" fill="#348080"/>
        <path id="Path_17859" data-name="Path 17859" d="M855.014,112.765c-.307,0-.615,0-.922,0-.557-.005-.611-.036-.78-.587-.146-.476-.267-.959-.391-1.442-.1-.377-.2-.755-.265-1.137-.044-.268-.16-.384-.427-.384q-2.009.006-4.018,0a.384.384,0,0,0-.437.373c-.144.788-.43,1.544-.537,2.341a2.819,2.819,0,0,1-.116.372.573.573,0,0,1-.619.467c-.747-.008-1.492.007-2.239-.007-.375-.007-.515-.2-.425-.557.181-.735.385-1.465.567-2.2q1.095-4.412,2.18-8.825c.446-1.808.887-3.617,1.338-5.423.157-.629.333-.755,1.023-.759q1.35-.006,2.7,0c.6,0,.728.1.867.661q1.2,4.853,2.4,9.709c.538,2.164,1.09,4.324,1.636,6.486.016.063.046.123.057.186.091.561-.036.717-.6.724-.33.005-.658,0-.988,0Zm-4.8-13.169c-.52,2.239-1.015,4.376-1.519,6.549h3.04C851.231,103.958,850.734,101.819,850.217,99.6Z" transform="translate(-772.485 -92.471)" fill="#348080"/>
        <path id="Path_17860" data-name="Path 17860" d="M552.172,112.349a.649.649,0,0,1-.68.389c-.615-.015-1.23,0-1.846-.005s-.738-.1-.892-.711q-.34-1.356-.684-2.71a.611.611,0,0,0-.05-.091h-4.605c-.277.682-.373,1.438-.589,2.16a7.345,7.345,0,0,0-.224.88.509.509,0,0,1-.538.466c-.768.017-1.537.007-2.307.005-.226,0-.354-.149-.478-.346q.936-3.753,1.88-7.54c.554-2.229,1.1-4.459,1.655-6.686.208-.841.432-1.678.641-2.519.041-.166,0-.363.165-.48a1.105,1.105,0,0,1,.678-.2c.593.012,1.186,0,1.78,0,.373,0,.747-.009,1.12,0,.517.016.644.131.782.668.379,1.469.786,2.929,1.13,4.406.912,3.924,1.924,7.825,2.914,11.731a2.167,2.167,0,0,0,.148.578Zm-6.521-12.586c-.487,2.117-.973,4.233-1.467,6.388H545.7c.476,0,.953-.005,1.52-.008-.479-2.186-.98-4.277-1.568-6.379Z" transform="translate(-508.139 -92.441)" fill="#348080"/>
        <path id="Path_17861" data-name="Path 17861" d="M1059.037,94.977c.462,0,.922-.009,1.384,0,.571.015.771.187.911.746.689,2.753,1.409,5.5,2.058,8.259.629,2.679,1.322,5.34,1.981,8.011a1.386,1.386,0,0,1,.049.321c0,.282-.1.42-.379.425q-1.186.022-2.373,0c-.328-.005-.455-.149-.55-.53-.222-.883-.454-1.762-.654-2.65a.392.392,0,0,0-.445-.367q-1.977.006-3.955,0a.421.421,0,0,0-.488.393c-.189.867-.426,1.723-.644,2.585-.123.484-.216.567-.713.573-.659.007-1.32-.025-1.977.009-.577.03-.7-.235-.582-.724.226-.9.466-1.8.692-2.706q1.023-4.1,2.041-8.2c.447-1.808.881-3.62,1.326-5.427.131-.534.355-.707.934-.719.461-.009.922,0,1.384,0Zm-.022,4.578c-.519,2.241-1.015,4.389-1.514,6.544a14.405,14.405,0,0,0,3.016-.018c-.493-2.143-.987-4.285-1.5-6.526Z" transform="translate(-953.739 -92.454)" fill="#348080"/>
        <path id="Path_17862" data-name="Path 17862" d="M954.786,101.692c.314-.682.6-1.287.871-1.9.376-.856.736-1.721,1.1-2.581.214-.5.434-1,.637-1.5a1.034,1.034,0,0,1,1.135-.79c.615-.005,1.23,0,1.845,0a1.583,1.583,0,0,1,.263.008c.523.09.645.338.431.822-.765,1.733-1.521,3.469-2.289,5.2-.583,1.314-1.18,2.622-1.768,3.935-.161.358-.3.723-.471,1.077a1.269,1.269,0,0,0-.063.581q0,2.565,0,5.13c0,.153.008.307,0,.461a.518.518,0,0,1-.525.55q-1.186.026-2.371,0a.521.521,0,0,1-.541-.536c-.013-.152,0-.306,0-.461,0-1.688-.007-3.377.005-5.064a2.413,2.413,0,0,0-.193-1.016c-.435-.975-.887-1.944-1.317-2.92-.571-1.294-1.126-2.6-1.694-3.891-.385-.877-.781-1.751-1.174-2.625-.054-.12-.125-.232-.176-.352-.236-.57-.117-.834.5-.878a19.45,19.45,0,0,1,2.3,0,.857.857,0,0,1,.738.575c.231.541.5,1.066.732,1.606.631,1.458,1.251,2.92,1.876,4.38a1.486,1.486,0,0,0,.152.194Z" transform="translate(-863.25 -92.394)" fill="#348080"/>
        <path id="Path_17863" data-name="Path 17863" d="M405.784,103.893v7.83c0,.153.011.307,0,.461a.506.506,0,0,1-.486.521c-.856.017-1.713.007-2.57.007-.239,0-.329-.165-.424-.351a1.352,1.352,0,0,1-.078-.644q0-7.9,0-15.794c0-.11-.008-.22,0-.329a.623.623,0,0,1,.674-.645c.724-.02,1.45-.021,2.175,0,.552.016.707.2.709.785q0,4.079,0,8.16Z" transform="translate(-389.163 -92.419)" fill="#348080"/>
      </g>
      <g id="Layer_1-2" data-name="Layer 1-2" transform="translate(0 0)">
        <g id="GH">
          <path id="Path_17864" data-name="Path 17864" d="M51.867,68.363H38.02a.35.35,0,0,1-.395-.4q0-7.705-.005-15.411a.654.654,0,0,1,.259-.548Q43.918,46.8,49.947,41.582a2.875,2.875,0,0,1,1.886-.8,2.7,2.7,0,0,1,1.837.714q3.454,2.987,6.91,5.97,2.65,2.29,5.3,4.575a.576.576,0,0,1,.223.483q-.008,7.745,0,15.493c0,.35,0,.35-.36.35H51.867Zm2.065-10.826c-.082.162-.136.281-.2.393q-1.56,2.7-3.126,5.4a.388.388,0,0,0,0,.463c.206.326.388.666.582,1l.414.715c2.507-4.339,4.981-8.621,7.478-12.939-.14-.007-.227-.013-.313-.015-.548,0-1.1.012-1.644-.007a.435.435,0,0,0-.442.261c-.765,1.339-1.544,2.673-2.309,4.013a.433.433,0,0,1-.429.251c-.592-.009-1.185,0-1.779-.005a2.668,2.668,0,0,1-.333-.045c.867-1.5,1.709-2.961,2.58-4.469H50.135c-.35,0-.426.065-.517.47h2.229a1.97,1.97,0,0,1-.1.235c-.69,1.2-1.387,2.391-2.07,3.59a.338.338,0,0,1-.4.173,3.811,3.811,0,0,1,.6-7.577c1.239,0,2.479-.005,3.718.005a.413.413,0,0,0,.421-.248c.271-.5.561-.982.841-1.473.037-.065.062-.137.107-.238h-.307q-2.466,0-4.931,0a4.179,4.179,0,0,0-.589.046,5.015,5.015,0,0,0-.731,9.773c.271.079.548.136.854.211-.054.108-.091.2-.139.28-.29.505-.586,1.008-.87,1.517a.373.373,0,0,0-.051.29c.334.612.686,1.214,1.05,1.85.071-.117.124-.2.172-.281.585-1.009,1.2-2,1.738-3.036a.981.981,0,0,1,1.1-.625c.53.053,1.071.012,1.661.012h0Z" transform="translate(-32.655 -35.397)" fill="#348080"/>
          <path id="Path_17865" data-name="Path 17865" d="M28.291,6.484c0-.945,0-1.834,0-2.724a1.553,1.553,0,0,1,3.1-.051c.015,1.706.016,3.414-.009,5.12a.619.619,0,0,0,.245.556q3.1,2.66,6.179,5.334a1.554,1.554,0,1,1-2,2.374c-.649-.54-1.281-1.1-1.92-1.651L21.853,5.058q-.887-.766-1.772-1.533a1.128,1.128,0,0,0-1.756,0Q11.911,9.058,5.494,14.593c-.958.827-1.912,1.66-2.878,2.479A1.555,1.555,0,1,1,.579,14.726Q2.3,13.231,4.024,11.75,10.041,6.557,16.057,1.363A5.1,5.1,0,0,1,18.064.149,4.129,4.129,0,0,1,22,1.074q2.993,2.573,5.978,5.154c.087.075.178.146.311.256h0Z" transform="translate(0.008 0.009)" fill="#348080"/>
          <path id="Path_17866" data-name="Path 17866" d="M101.352,101.746c-.59,0-1.13.042-1.661-.012a.981.981,0,0,0-1.1.625c-.537,1.035-1.153,2.027-1.738,3.036-.048.083-.1.164-.172.281-.364-.636-.718-1.238-1.05-1.85a.378.378,0,0,1,.051-.29c.284-.509.579-1.012.87-1.517.048-.082.086-.17.139-.28-.306-.075-.583-.132-.854-.211a5.015,5.015,0,0,1,.731-9.773,4.179,4.179,0,0,1,.589-.046q2.466,0,4.931,0h.307c-.045.1-.07.173-.107.238-.28.491-.57.976-.841,1.473a.414.414,0,0,1-.421.248c-1.239-.012-2.479-.007-3.718-.005a3.811,3.811,0,0,0-.6,7.577.338.338,0,0,0,.4-.173c.685-1.2,1.38-2.394,2.07-3.59a2.35,2.35,0,0,0,.1-.235H97.041c.091-.405.166-.47.517-.47h4.277c-.871,1.507-1.713,2.966-2.58,4.469a2.988,2.988,0,0,0,.333.045c.592,0,1.185-.005,1.779.005a.434.434,0,0,0,.429-.251c.767-1.339,1.544-2.673,2.309-4.013a.435.435,0,0,1,.442-.261c.548.017,1.1.005,1.644.007.086,0,.173.008.313.015l-7.478,12.939c-.158-.273-.288-.494-.414-.715-.193-.334-.376-.674-.582-1a.39.39,0,0,1,0-.463q1.572-2.7,3.126-5.4c.065-.112.117-.231.2-.393h0Z" transform="translate(-80.074 -79.605)" fill="#fff"/>
        </g>
      </g>
    </g>
  </g>
</svg>
