<svg xmlns="http://www.w3.org/2000/svg" width="176" height="176" viewBox="0 0 176 176">
  <g id="placeholder" transform="translate(-42 -7.328)" opacity="0.4">
    <g id="Group_4421" data-name="Group 4421" transform="translate(69.167 42.541)" opacity="0.4">
      <path id="Path_16735" data-name="Path 16735" d="M137.609,187.934H93.4c-1.256,0-1.258,0-1.258-1.266q0-24.6-.017-49.206a2.082,2.082,0,0,1,.825-1.748q19.283-16.621,38.531-33.283a9.194,9.194,0,0,1,6.02-2.566,8.616,8.616,0,0,1,5.865,2.28q11.029,9.533,22.065,19.058,8.462,7.308,16.932,14.606a1.833,1.833,0,0,1,.711,1.542q-.022,24.732-.013,49.464c0,1.116-.006,1.118-1.151,1.118h-44.3M144.2,153.37c-.262.518-.433.9-.64,1.256q-4.981,8.636-9.983,17.259a1.242,1.242,0,0,0,0,1.479c.657,1.041,1.241,2.128,1.857,3.194.408.707.819,1.412,1.325,2.284l23.876-41.315c-.446-.02-.722-.044-1-.044-1.749,0-3.5.036-5.247-.02a1.39,1.39,0,0,0-1.411.836c-2.445,4.278-4.928,8.534-7.374,12.811a1.379,1.379,0,0,1-1.368.8c-1.892-.031-3.785-.006-5.677-.017a9.286,9.286,0,0,1-1.062-.143l8.236-14.268H132.077c-1.119,0-1.36.208-1.65,1.5h7.118a7.17,7.17,0,0,1-.31.751c-2.2,3.821-4.427,7.633-6.611,11.466a1.076,1.076,0,0,1-1.284.551,12.167,12.167,0,0,1,1.93-24.192c3.957-.007,7.914-.02,11.871.016a1.318,1.318,0,0,0,1.343-.792c.866-1.583,1.791-3.133,2.686-4.7.119-.208.2-.437.343-.759h-.981q-7.871,0-15.743.005a13.432,13.432,0,0,0-1.877.148,16.011,16.011,0,0,0-2.336,31.2c.865.251,1.749.434,2.728.674-.171.347-.292.627-.444.891-.925,1.616-1.87,3.22-2.776,4.848a1.2,1.2,0,0,0-.166.928c1.066,1.954,2.19,3.876,3.355,5.908.23-.376.394-.634.547-.9,1.866-3.223,3.833-6.394,5.549-9.695a3.132,3.132,0,0,1,3.528-2c1.7.171,3.422.037,5.3.037" transform="translate(-76.273 -82.681)" fill="#348080"/>
      <path id="Path_16736" data-name="Path 16736" d="M90.346,20.731c0-3.019,0-5.856,0-8.693a4.959,4.959,0,0,1,9.916-.164c.045,5.449.052,10.9-.029,16.346a1.979,1.979,0,0,0,.783,1.774q9.884,8.492,19.731,17.029a4.961,4.961,0,1,1-6.4,7.577c-2.072-1.723-4.091-3.51-6.131-5.27Q89,32.754,69.793,16.177q-2.833-2.444-5.659-4.9c-2.059-1.794-3.541-1.789-5.606-.006Q38.05,28.952,17.565,46.621c-3.061,2.641-6.106,5.3-9.187,7.918a4.965,4.965,0,1,1-6.507-7.491q5.485-4.769,11-9.5Q32.083,20.966,51.286,4.38A16.252,16.252,0,0,1,57.7.5,13.187,13.187,0,0,1,70.267,3.457q9.557,8.213,19.087,16.458c.279.241.568.468.992.816" transform="translate(0 0)" fill="#348080"/>
      <path id="Path_16737" data-name="Path 16737" d="M254.929,256.62c-1.883,0-3.609.134-5.3-.037a3.132,3.132,0,0,0-3.528,2c-1.716,3.3-3.683,6.472-5.549,9.695-.153.265-.318.523-.547.9-1.165-2.032-2.29-3.954-3.355-5.908a1.2,1.2,0,0,1,.166-.927c.905-1.627,1.85-3.232,2.776-4.848.151-.264.272-.545.444-.891-.979-.24-1.863-.423-2.728-.674a16.011,16.011,0,0,1,2.336-31.2,13.43,13.43,0,0,1,1.877-.148q7.871-.017,15.743-.005h.981c-.144.322-.224.551-.343.759-.895,1.567-1.82,3.118-2.686,4.7a1.318,1.318,0,0,1-1.343.792c-3.957-.036-7.914-.023-11.871-.016A12.167,12.167,0,0,0,240.066,255a1.076,1.076,0,0,0,1.284-.551c2.185-3.833,4.407-7.645,6.611-11.466a7.166,7.166,0,0,0,.31-.751h-7.118c.289-1.293.531-1.5,1.65-1.5h13.655L248.223,255a9.279,9.279,0,0,0,1.062.143c1.892.011,3.785-.015,5.677.017a1.38,1.38,0,0,0,1.368-.8c2.446-4.277,4.929-8.534,7.374-12.811a1.39,1.39,0,0,1,1.411-.836c1.747.056,3.5.016,5.247.02.276,0,.552.024,1,.044l-23.876,41.315c-.506-.872-.917-1.577-1.325-2.284-.616-1.067-1.2-2.153-1.857-3.195a1.243,1.243,0,0,1,0-1.479q5.016-8.615,9.983-17.259c.207-.359.378-.738.64-1.256" transform="translate(-186.999 -185.933)" fill="#fff"/>
    </g>
    <rect id="Rectangle_1761" data-name="Rectangle 1761" width="176" height="176" transform="translate(42 7.328)" fill="none"/>
  </g>
</svg>
