<svg id="splashlogo" xmlns="http://www.w3.org/2000/svg" width="246.564" height="211.615" viewBox="0 0 246.564 211.615">
  <path id="Subtraction_1" data-name="Subtraction 1" d="M10070.15,22104.066c-29.136,0-59.263,0-88.892-.006-2.529,0-2.529,0-2.529-2.541q0-8.115,0-16.232v-1.92c0-26.479,0-53.861-.034-80.775a4.176,4.176,0,0,1,1.658-3.516c30.319-26.137,54.936-47.4,77.47-66.914,4.012-3.475,7.855-5.113,12.1-5.158.065,0,.132,0,.2,0a17.24,17.24,0,0,1,11.6,4.584c12.461,10.77,25.082,21.668,35.785,30.91l8.577,7.406q2.2,1.9,4.4,3.8l2.2,1.906.684.59c8.76,7.572,17.819,15.4,26.752,23.07a3.686,3.686,0,0,1,1.431,3.1c-.023,23.518-.025,47.141-.025,73.369q0,13.037,0,26.072v.006c0,2.242,0,2.242-2.313,2.242C10129.523,22104.066,10099.34,22104.066,10070.15,22104.066Zm13.251-69.492h0v0c-.185.363-.349.7-.492.988-.279.568-.521,1.059-.794,1.533q-1.859,3.22-3.717,6.441c-5.038,8.732-10.748,18.631-16.354,28.258a2.487,2.487,0,0,0-.006,2.973c.934,1.48,1.8,3.016,2.641,4.5l.06.105c.337.6.686,1.213,1.033,1.816.285.494.571.986.865,1.494l.347.6c.45.775.925,1.594,1.45,2.5l0,0q8.1-14.007,16.132-27.912l2.658-4.6c9.738-16.854,19.45-33.66,29.216-50.559-.325-.014-.621-.029-.9-.045l-.177-.01c-.341-.018-.636-.033-.929-.035h-.9c-.653,0-1.3,0-1.847,0l-.484,0c-1.077.008-2.026.014-2.9.014-1.707,0-3.108-.02-4.41-.057l-.083,0h-.079a2.69,2.69,0,0,0-1.772.549,3.86,3.86,0,0,0-.911,1.139c-2.51,4.391-5.123,8.916-7.429,12.906l-.288.5c-1.124,1.947-2.287,3.961-3.426,5.938-1.423,2.471-2.558,4.445-3.681,6.408a2.748,2.748,0,0,1-2.657,1.609c-.029,0-.059,0-.089,0-1.349-.027-2.771-.037-4.61-.037q-1.185,0-2.368,0h-.74l-.741,0h-.74l-.738,0q-.74,0-1.478,0a7.963,7.963,0,0,1-1.277-.152l-.05-.01c-.237-.039-.507-.082-.806-.125q2.25-3.905,4.493-7.789l4.562-7.9.795-1.377c2.22-3.848,4.447-7.705,6.7-11.613a.023.023,0,0,1,0-.01h-2.2c-8.274,0-16.831,0-25.252,0-2.271,0-2.735.422-3.317,3.014v.01h14.307c-.093.229-.169.43-.235.609l-.014.035-.013.035c-.1.266-.18.477-.276.672-.031.063-.061.115-.083.152-1.419,2.459-2.887,5-4.263,7.373-2.965,5.123-6.03,10.418-9.028,15.676a1.983,1.983,0,0,1-1.888,1.168,4.82,4.82,0,0,1-.692-.059,24.372,24.372,0,0,1-20.736-25.035c.028-.676.087-1.361.173-2.035a24.307,24.307,0,0,1,24.441-21.562l3.011,0,.223,0c3.041-.006,5.747-.01,8.272-.01,4.806,0,8.733.016,12.359.049h.042a2.738,2.738,0,0,0,1.828-.535,3.368,3.368,0,0,0,.837-1.062c1.139-2.082,2.348-4.17,3.518-6.187l.021-.037.024-.043c.6-1.039,1.227-2.117,1.834-3.18a7.359,7.359,0,0,0,.371-.789l.085-.2c.085-.2.156-.367.231-.537v-.008l-1.968,0h-7.914q-3.957,0-7.913,0c-6.529,0-11.41,0-15.826.014a27.662,27.662,0,0,0-3.772.3,32.235,32.235,0,0,0-27.46,35.859,31.963,31.963,0,0,0,22.761,26.877c1.173.34,2.347.613,3.59.9.595.139,1.234.289,1.892.449-.1.205-.193.4-.281.584l-.056.115-.012.025c-.144.3-.278.582-.421.852-.039.07-.078.141-.118.211-.646,1.129-1.3,2.268-1.871,3.246l-.025.045c-1.22,2.109-2.481,4.291-3.685,6.457-.049.09-.1.2-.152.314a2.085,2.085,0,0,0-.181,1.555c1.719,3.152,3.491,6.229,5.368,9.482l0,.01c.172.3.344.6.517.9q.426.738.856,1.488l.041-.066.169-.279c.336-.541.626-1.008.894-1.469,1.019-1.76,2.072-3.545,3.091-5.271l.188-.316c2.665-4.51,5.421-9.174,7.878-13.9a7.854,7.854,0,0,1,2.744-3.271l.025-.014.022-.016a.062.062,0,0,1,.022-.012.085.085,0,0,1,.01-.008l.01-.006a6.086,6.086,0,0,1,3.128-.75c.361,0,.74.021,1.128.061a39.953,39.953,0,0,0,4.06.176c1.063,0,2.135-.023,3.17-.049l.145,0C10081.18,22034.6,10082.281,22034.574,10083.4,22034.574Z" transform="translate(-9946.834 -21892.453)" fill="#fff"/>
  <path id="Path_16736" data-name="Path 16736" d="M181.639,41.68c0-6.069-.009-11.773,0-17.477a9.97,9.97,0,0,1,19.936-.329c.091,10.954.106,21.911-.058,32.864a3.98,3.98,0,0,0,1.574,3.567q19.872,17.074,39.669,34.236c3.671,3.181,4.739,7.627,2.964,11.687-2.794,6.393-10.325,8.123-15.828,3.547-4.166-3.464-8.224-7.057-12.327-10.6q-38.628-33.325-77.253-66.653-5.7-4.914-11.377-9.845c-4.14-3.606-7.119-3.6-11.272-.012Q76.5,58.208,35.315,93.731c-6.154,5.31-12.277,10.656-18.47,15.919-5.714,4.856-13.908,2.806-16.27-4A9.914,9.914,0,0,1,3.763,94.588Q14.79,85,25.879,75.483,64.5,42.152,103.11,8.805c3.87-3.348,7.839-6.471,12.885-7.79C125.447-1.456,133.89.608,141.27,6.95q19.214,16.513,38.374,33.088c.561.484,1.143.942,1.995,1.641" transform="translate(0 0)" fill="#fff"/>
</svg>
